# xmcd
#
# Track frame offsets:
#	150
#	3354
#	16521
#	35419
#	44958
#	56352
#	61875
#	70480
#	88754
#	97721
#	105484
#	117699
#	141314
#	155318
#
# Disc length: 2281 seconds
#
# Revision: 1
# Processed by: cddbd v1.5.2PL0 Copyright (c) Steve Scherf et al.
# Submitted via: audiograbber 1.83.01
#
DISCID=b408e70e
DTITLE=Sensations' Fix - Music is painting in the air (1974-1977)
DYEAR=2012
DGENRE=Electronic
TTITLE0=Cold Nose Part 3, Movement  3
TTITLE1=Music is Painting
TTITLE2=Left Side of Green
TTITLE3=Chelsea Hotel (room 625)
TTITLE4=Fix a Water Fountain (instrumental)
TTITLE5=Overflowing Ashtrays
TTITLE6=Strangelands
TTITLE7=Cold Nose Story
TTITLE8=Slow Motion Movie
TTITLE9=Fortune Teller
TTITLE10=Fortune Teller Coda
TTITLE11=Crossing Berlin
TTITLE12=Darkside 1 and 3
TTITLE13=Darkside 2
EXTD=
EXTT0=
EXTT1=
EXTT2=
EXTT3=
EXTT4=
EXTT5=
EXTT6=
EXTT7=
EXTT8=
EXTT9=
EXTT10=
EXTT11=
EXTT12=
EXTT13=
PLAYORDER=
